{"glyphs":{":":{"x_min":0,"x_max":207,"ha":207,"o":"m 18 74 q 28 74 36 64 q 41 58 41 48 q 41 25 28 0 q 15 -27 -7 -27 q -29 -27 -29 -2 q -29 23 -14 50 q 0 74 18 74 z m 114 317 q 125 317 132 307 q 137 301 137 291 q 137 268 125 243 q 111 216 90 216 q 67 216 67 241 q 67 267 83 293 q 97 317 114 317 z"},"$":{"x_min":0,"x_max":342,"ha":342,"o":"m 213 314 l 186 267 q 210 235 220 220 q 247 180 247 145 q 247 101 215 62 q 186 26 135 9 q 101 -2 66 -2 q 59 -2 42 -1 l 28 -28 q 20 -45 7 -45 q 1 -45 -3 -42 q -9 -38 -9 -32 q -9 -27 -5 -19 l 6 8 q -60 34 -60 87 q -60 138 -17 175 q 10 198 33 198 q 49 198 49 183 q 49 174 35 164 q 19 153 8 135 q -2 118 -2 102 q -2 72 29 54 l 137 254 q 119 279 111 295 q 93 329 93 359 q 93 414 136 457 q 189 512 300 526 l 320 556 q 331 571 343 571 q 358 571 358 558 q 358 552 354 544 l 345 526 q 417 515 417 457 q 417 395 332 351 q 275 322 213 314 z m 246 368 q 291 376 326 396 q 374 424 374 455 q 374 484 333 484 q 326 484 317 483 z m 269 475 q 232 470 203 448 q 146 408 146 353 q 146 328 164 299 l 176 321 q 170 328 170 336 q 170 359 201 363 z m 63 43 q 78 42 87 42 q 135 42 169 81 q 199 113 199 149 q 199 172 179 199 q 175 205 161 222 z"},"?":{"x_min":0,"x_max":366,"ha":366,"o":"m 382 612 q 314 612 227 522 q 197 493 183 493 q 176 493 171 498 q 166 504 166 511 q 166 542 224 589 q 303 653 380 653 q 419 653 449 629 q 481 604 481 563 q 481 517 435 467 q 399 428 324 374 q 266 331 249 314 q 212 280 192 244 q 181 221 171 200 q 159 176 138 176 q 116 176 116 196 q 116 219 155 280 q 184 325 242 372 q 277 399 316 427 q 382 473 400 491 q 438 530 438 565 q 438 589 425 600 q 411 612 382 612 z m 115 74 q 126 74 133 64 q 138 58 138 48 q 138 25 125 0 q 112 -27 91 -27 q 68 -27 68 -2 q 68 23 84 50 q 98 74 115 74 z"},"<":{"x_min":0,"x_max":500,"ha":500,"o":"m 495 585 l 495 522 l 108 343 l 495 155 l 495 92 l 35 314 l 35 374 z"},"'":{"x_min":0,"x_max":126,"ha":126,"o":"m 274 674 q 281 674 287 670 q 295 664 295 653 q 295 632 237 521 q 216 482 206 473 q 198 467 190 467 q 173 467 173 490 q 173 504 191 538 q 233 625 237 634 q 252 674 274 674 z"},"=":{"x_min":0,"x_max":342,"ha":342,"o":"m 153 351 q 170 351 197 350 q 244 348 258 348 q 290 348 301 342 q 310 338 310 324 q 310 311 301 304 q 296 300 289 300 q 284 300 271 301 q 251 303 159 303 q 104 303 76 298 q 63 295 56 295 q 43 295 36 306 q 32 312 32 319 q 32 341 58 347 q 78 351 153 351 z m 133 244 q 150 244 177 243 q 224 241 238 241 q 270 241 281 235 q 290 231 290 217 q 290 204 281 197 q 276 193 269 193 q 264 193 251 194 q 231 196 139 196 q 83 196 56 191 q 43 188 36 188 q 23 188 16 199 q 12 205 12 212 q 12 234 38 240 q 58 244 133 244 z"},"a":{"x_min":0,"x_max":259,"ha":259,"o":"m 115 119 q 99 90 83 71 q 53 33 22 33 q -4 33 -19 58 q -28 74 -28 96 q -28 150 6 215 q 44 288 98 327 q 133 353 166 353 q 187 353 200 340 q 212 329 212 314 q 212 304 204 285 q 211 274 211 267 q 211 256 197 233 q 183 209 169 169 q 154 127 154 102 q 154 82 166 68 q 169 65 186 57 q 198 51 198 37 q 198 27 191 21 q 184 15 174 15 q 148 15 129 39 q 113 58 113 86 q 113 96 115 119 z m 176 279 q 170 290 164 295 q 157 300 149 300 q 112 300 68 235 q 21 164 21 114 q 21 102 25 95 q 30 89 39 89 q 62 89 94 139 q 111 166 137 219 q 154 254 162 265 q 166 271 176 279 z"},"L":{"x_min":0,"x_max":309,"ha":309,"o":"m 28 79 q 41 83 47 85 q 160 120 209 120 q 246 120 246 92 q 246 82 237 73 q 229 65 219 65 q 214 65 205 66 q 197 68 192 68 q 163 68 116 55 q 99 49 50 27 q 18 13 -3 13 q -19 13 -28 27 q -38 40 -38 55 q -38 73 -18 116 q 43 249 113 354 q 213 505 269 576 q 284 595 299 615 q 323 647 340 647 q 349 647 356 640 q 362 633 362 626 q 362 615 346 593 q 342 588 305 540 q 236 448 202 400 q 168 352 129 288 q 54 164 28 79 z"},"3":{"x_min":0,"x_max":342,"ha":342,"o":"m 225 316 q 250 306 260 293 q 275 275 275 243 q 275 163 208 90 q 141 17 70 17 q 27 17 0 53 q -20 79 -20 110 q -20 162 20 162 q 44 162 44 144 q 44 140 43 134 q 42 125 42 117 q 42 94 53 82 q 65 69 83 69 q 124 69 172 127 q 217 183 217 233 q 217 258 205 273 q 192 289 168 289 q 159 289 150 286 q 139 282 133 282 q 119 282 119 301 q 119 318 130 329 q 136 335 157 340 q 197 351 226 369 q 244 380 254 400 q 260 410 260 421 q 260 436 252 442 q 245 449 229 449 q 203 449 174 436 q 167 432 140 416 q 132 411 124 411 q 107 411 107 429 q 107 445 131 462 q 188 503 243 503 q 276 503 298 483 q 322 461 322 432 q 322 392 288 357 q 270 338 225 316 z"},";":{"x_min":0,"x_max":207,"ha":207,"o":"m 17 72 q 40 72 40 43 q 40 -1 -10 -73 q -30 -103 -57 -127 q -75 -143 -85 -143 q -96 -143 -102 -134 q -106 -128 -106 -120 q -106 -109 -85 -90 q -26 -33 -16 43 q -13 58 -2 65 q 7 72 17 72 z m 115 317 q 126 317 133 307 q 138 301 138 291 q 138 268 125 243 q 112 216 91 216 q 68 216 68 241 q 68 267 84 293 q 98 317 115 317 z"},"J":{"x_min":0,"x_max":425,"ha":425,"o":"m 497 618 q 411 396 335 260 q 260 126 188 67 q 129 20 77 20 q 34 20 10 59 q -8 89 -8 126 q -8 208 39 297 q 69 353 116 396 q 138 417 148 417 q 155 417 161 410 q 165 405 165 399 q 165 392 139 357 q 49 240 49 144 q 49 115 62 93 q 76 69 102 69 q 153 69 213 158 q 291 271 376 459 q 417 549 438 610 q 345 592 308 578 q 292 571 282 571 q 272 571 264 581 q 259 587 259 596 q 259 617 287 627 q 405 671 542 671 q 581 671 596 664 q 611 657 611 643 q 611 617 577 617 q 567 617 550 618 q 534 619 522 619 q 514 619 497 618 z"},"V":{"x_min":0,"x_max":415,"ha":415,"o":"m 112 33 q 241 268 359 441 q 414 522 484 612 q 512 647 533 647 q 541 647 547 641 q 551 636 551 630 q 551 618 526 587 q 364 385 160 19 q 142 -14 132 -25 q 123 -37 108 -37 q 58 -37 58 54 q 58 141 102 324 q 138 475 190 594 q 210 639 216 647 q 226 662 243 662 q 254 662 261 655 q 267 649 267 642 q 267 630 261 616 l 242 572 q 190 447 156 321 q 111 159 111 61 z"},"\"":{"x_min":0,"x_max":238,"ha":238,"o":"m 274 674 q 281 674 287 670 q 295 664 295 653 q 295 632 237 521 q 216 482 206 473 q 198 467 190 467 q 173 467 173 490 q 173 504 191 538 q 233 625 237 634 q 252 674 274 674 z m 387 674 q 394 674 399 670 q 407 664 407 653 q 407 633 349 521 q 329 482 318 473 q 310 467 303 467 q 286 467 286 490 q 286 500 297 524 q 300 531 326 585 q 344 622 349 634 q 365 674 387 674 z"},"7":{"x_min":0,"x_max":342,"ha":342,"o":"m 301 448 q 170 419 117 419 q 81 419 81 443 q 81 455 89 463 q 97 471 107 471 q 111 471 121 470 q 127 469 135 469 q 165 469 215 477 q 278 487 309 495 q 326 500 337 500 q 363 500 363 471 q 363 452 341 428 q 173 249 78 74 q 55 32 48 24 q 37 10 23 10 q 16 10 11 15 q 4 21 4 29 q 4 54 51 132 q 114 234 202 339 q 255 403 301 448 z"},"S":{"x_min":0,"x_max":394,"ha":394,"o":"m 74 227 q 101 227 101 205 q 101 189 76 181 q 34 166 34 126 q 34 95 59 78 q 80 63 112 63 q 176 63 225 101 q 255 125 255 161 q 255 184 246 202 q 237 220 218 249 q 188 292 168 329 q 146 369 146 407 q 146 499 236 578 q 284 620 342 646 q 390 667 434 667 q 463 667 483 651 q 507 633 507 602 q 507 553 455 497 q 405 443 338 410 q 305 393 288 393 q 277 393 268 402 q 262 409 262 417 q 262 435 294 446 q 354 467 399 505 q 458 554 458 590 q 458 604 446 613 q 437 620 424 620 q 390 620 339 594 q 271 560 232 505 q 198 458 198 413 q 198 380 216 345 q 231 317 254 282 q 277 249 292 220 q 311 186 311 156 q 311 98 245 54 q 188 17 118 17 q 48 17 8 55 q -21 84 -21 123 q -21 165 7 194 q 24 211 47 220 q 63 227 74 227 z"},"}":{"x_min":0,"x_max":424,"ha":424,"o":"m 228 246 q 213 267 213 284 q 213 312 241 368 q 261 408 301 524 q 322 587 322 622 q 322 644 306 656 q 291 668 274 668 q 267 668 253 666 q 236 663 229 663 q 206 663 206 684 q 206 715 279 715 q 323 715 346 693 q 373 667 373 624 q 373 587 349 517 q 318 427 279 330 q 266 299 266 286 q 266 273 276 265 q 279 261 296 253 q 314 245 314 229 q 314 203 276 204 q 252 204 238 199 q 216 190 191 144 q 70 -87 26 -150 q -27 -226 -74 -245 q -109 -259 -157 -259 q -202 -259 -202 -235 q -202 -225 -193 -217 q -185 -209 -170 -209 q -164 -209 -153 -210 q -143 -211 -136 -211 q -98 -211 -66 -187 q -24 -154 14 -88 q 67 5 158 184 q 179 226 228 246 z"},"Z":{"x_min":0,"x_max":385,"ha":385,"o":"m -1 60 q 41 63 88 78 q 122 88 186 111 q 270 141 289 141 q 313 141 313 115 q 313 103 303 96 q 296 91 273 86 q 218 77 128 42 q 36 7 -2 7 q -29 7 -43 25 q -54 40 -54 56 q -54 84 -17 133 q 129 322 247 440 q 307 501 461 634 q 435 631 360 619 q 294 609 248 609 q 215 609 196 622 q 182 631 182 643 q 182 653 190 661 q 199 667 206 667 q 209 667 225 663 q 238 658 259 658 q 334 658 447 678 q 492 686 517 686 q 555 686 555 659 q 555 643 534 624 q 529 620 485 586 q 332 466 166 276 q 67 162 38 122 q 16 92 -1 60 z"},"x":{"x_min":0,"x_max":250,"ha":250,"o":"m 38 181 q 37 196 37 210 q 37 224 38 243 q 39 276 39 281 q 40 312 45 322 q 53 335 66 335 q 75 335 81 329 q 87 321 87 312 q 87 305 86 292 q 84 280 84 261 q 84 254 85 238 q 95 250 125 284 q 174 338 191 338 q 197 338 201 333 q 205 328 205 322 q 205 310 189 296 q 128 242 84 180 q 84 172 84 169 q 84 132 85 118 q 88 99 102 99 q 117 99 140 129 q 169 166 182 189 q 195 210 208 210 q 218 210 218 198 q 218 176 170 112 q 144 76 123 57 q 100 37 80 37 q 51 37 44 73 q 40 91 38 128 q 28 117 -1 79 q -46 22 -63 22 q -79 22 -79 47 q -79 57 -72 64 q -68 70 -51 84 q -20 113 4 142 q 30 172 38 181 z"},")":{"x_min":0,"x_max":357,"ha":357,"o":"m 305 716 q 324 716 324 688 q 324 658 307 533 q 262 211 63 -42 q -1 -124 -64 -187 q -91 -214 -104 -214 q -111 -214 -116 -208 q -120 -203 -120 -197 q -120 -187 -107 -171 q -104 -167 -74 -135 q -51 -112 16 -24 q 149 146 216 364 q 258 501 281 666 q 285 695 287 702 q 291 716 305 716 z"},"&":{"x_min":0,"x_max":627,"ha":627,"o":"m 296 367 q 304 296 310 266 q 315 232 334 152 q 384 226 395 282 q 382 283 378 283 q 351 284 343 290 q 333 296 333 310 q 333 321 340 329 q 348 337 360 337 q 365 337 384 336 q 388 335 392 335 q 427 335 506 347 q 532 351 557 351 q 604 351 604 319 q 604 298 586 298 q 578 298 559 302 q 549 304 537 304 q 512 304 435 289 q 427 247 404 194 q 378 136 351 105 q 366 79 376 68 q 397 44 431 44 q 448 44 465 49 q 485 53 496 53 q 514 53 514 35 q 514 19 491 8 q 458 -9 418 -9 q 354 -9 312 60 q 247 -2 186 -2 q 117 -2 77 55 q 49 93 49 148 q 49 217 90 276 q 132 335 243 383 q 239 415 239 438 q 239 491 254 531 q 268 570 303 596 q 334 620 371 620 q 401 620 421 599 q 443 576 443 545 q 443 502 413 458 q 391 425 333 389 q 327 385 296 367 z m 292 404 q 331 426 354 449 q 392 486 392 521 q 392 540 382 552 q 373 564 358 564 q 329 564 307 530 q 290 502 290 441 q 290 432 292 404 z m 246 342 q 202 321 172 294 q 104 233 104 163 q 104 120 127 90 q 152 57 198 57 q 245 57 294 107 q 276 151 262 225 q 253 294 246 342 z"},"_":{"x_min":0,"x_max":500,"ha":500,"o":"m 40 -73 l 540 -73 l 540 -120 l 40 -120 z"},"v":{"x_min":0,"x_max":277,"ha":277,"o":"m 152 171 q 122 120 101 95 q 48 34 14 34 q -7 34 -19 57 q -26 72 -26 88 q -26 121 1 182 q 26 235 43 266 q 56 288 59 294 q 64 308 69 314 q 75 325 86 325 q 92 325 97 320 q 102 314 102 306 q 102 284 62 208 q 22 133 22 108 q 22 93 35 93 q 56 93 94 147 q 111 172 130 209 q 129 222 129 228 q 129 265 143 292 q 161 326 190 326 q 208 326 208 306 q 208 273 173 209 q 183 208 189 208 q 205 208 231 228 q 251 245 258 245 q 263 245 269 238 q 273 233 273 228 q 273 210 249 188 q 221 163 185 163 q 170 163 152 171 z"},"O":{"x_min":0,"x_max":446,"ha":446,"o":"m 304 605 q 268 599 218 571 q 208 565 201 565 q 194 565 188 572 q 181 580 181 590 q 181 602 193 610 q 223 632 267 646 q 320 665 366 665 q 425 665 462 624 q 496 588 496 535 q 496 447 425 321 q 348 187 237 80 q 143 -10 76 -10 q 36 -10 12 26 q -7 54 -7 91 q -7 183 57 303 q 142 465 304 605 z m 330 610 q 338 601 338 593 q 338 587 312 558 q 204 442 152 366 q 99 287 70 207 q 50 149 50 105 q 50 83 59 68 q 70 50 92 50 q 137 50 213 126 q 310 223 371 327 q 440 445 440 529 q 440 568 415 593 q 395 612 361 612 z"},"(":{"x_min":0,"x_max":357,"ha":357,"o":"m 468 716 q 475 716 480 710 q 484 705 484 699 q 484 689 471 673 q 468 669 438 637 q 404 602 349 528 q 294 454 265 405 q 131 181 83 -164 q 79 -195 77 -200 q 73 -214 60 -214 q 40 -214 40 -186 q 40 -156 58 -31 q 103 292 301 544 q 371 632 429 689 q 456 716 468 716 z"},"C":{"x_min":0,"x_max":418,"ha":418,"o":"m 412 666 q 444 666 462 643 q 476 624 476 598 q 476 550 444 490 q 417 438 375 396 q 348 369 332 369 q 322 369 313 379 q 307 387 307 396 q 307 413 336 435 q 378 466 403 503 q 440 557 440 594 q 440 609 433 617 q 427 624 414 624 q 387 624 337 585 q 281 541 219 465 q 139 369 98 276 q 55 179 55 111 q 55 78 74 55 q 95 29 125 29 q 178 29 258 111 q 282 136 316 184 q 338 214 345 227 q 352 241 362 241 q 373 241 373 230 q 373 208 318 132 q 272 68 218 27 q 156 -18 102 -18 q 44 -18 13 33 q -7 66 -7 108 q -7 213 93 374 q 178 511 272 594 q 354 666 412 666 z"},"W":{"x_min":0,"x_max":556,"ha":556,"o":"m 83 57 q 112 94 134 128 q 146 148 201 237 l 242 305 q 288 380 303 401 q 328 437 353 437 q 370 437 370 423 q 370 414 363 400 q 358 390 336 332 q 313 273 301 200 q 292 148 292 112 q 292 101 294 88 q 295 75 297 60 q 317 84 340 130 q 363 176 410 276 q 454 372 514 475 q 562 560 630 646 q 662 688 681 688 q 689 688 696 679 q 701 673 701 666 q 701 656 671 618 q 611 542 557 450 q 495 344 402 147 q 360 60 338 22 q 315 -16 286 -16 q 260 -16 248 7 q 235 29 235 73 q 235 144 258 248 q 235 219 205 167 q 182 127 160 91 q 129 39 119 21 q 103 -7 86 -23 q 74 -35 58 -35 q 38 -35 29 -18 q 22 -6 22 11 q 22 127 145 428 q 204 575 214 608 q 223 640 231 649 q 243 662 259 662 q 280 662 280 641 q 280 616 262 565 q 241 508 194 402 q 163 330 149 293 q 90 114 83 57 z"},"A":{"x_min":0,"x_max":445,"ha":445,"o":"m 317 308 q 206 286 131 256 q 86 190 33 98 l 7 52 q 0 40 -14 17 q -30 -10 -47 -10 q -56 -10 -62 -2 q -69 4 -69 12 q -69 25 -32 89 q -12 124 28 188 q 44 212 53 228 q 24 219 0 208 q -12 203 -20 203 q -30 203 -35 212 q -39 217 -39 225 q -39 241 -27 248 q -8 260 41 275 q 78 287 99 296 q 109 309 153 371 q 171 398 258 498 q 321 571 387 634 q 426 671 446 671 q 459 671 468 661 q 476 652 476 641 q 476 627 462 593 q 439 533 417 464 q 399 404 393 372 q 401 372 404 372 q 418 373 428 373 q 456 373 456 351 q 456 342 450 333 q 444 324 436 322 q 433 321 420 321 q 392 321 378 317 q 367 283 341 140 q 328 45 329 24 q 329 -11 308 -11 q 291 -11 282 6 q 275 18 275 38 q 275 105 299 219 q 311 277 317 308 z m 331 360 q 335 375 353 436 q 357 452 375 500 q 394 549 404 579 q 373 558 340 523 q 225 399 177 321 q 195 325 255 343 q 272 348 331 360 z"},"f":{"x_min":0,"x_max":255,"ha":255,"o":"m 52 269 q 127 430 198 531 q 247 599 278 630 q 300 652 316 652 q 322 652 326 648 q 333 644 333 635 q 333 625 316 604 q 208 481 121 310 q 199 339 229 339 q 252 339 267 328 q 282 316 282 301 q 282 293 276 287 q 269 278 257 278 q 249 278 225 292 q 218 295 207 295 q 158 295 90 250 q 119 237 131 214 q 148 183 148 136 q 148 17 77 -116 q 46 -173 17 -202 q -14 -234 -46 -234 q -70 -234 -85 -210 q -98 -191 -98 -157 q -98 -85 -43 60 q -36 78 -4 150 q 4 168 12 189 q 8 188 5 188 q -8 188 -8 203 q -8 229 52 269 z m 69 205 q 42 153 -3 38 q -50 -80 -50 -145 q -50 -158 -43 -167 q -37 -177 -27 -177 q 3 -177 52 -76 q 108 38 108 132 q 108 168 94 187 q 88 194 69 205 z"},"Q":{"x_min":0,"x_max":445,"ha":445,"o":"m 229 72 q 233 57 234 53 q 253 -15 260 -29 q 277 -67 299 -85 q 319 -102 348 -102 q 374 -102 403 -82 q 412 -76 417 -76 q 423 -76 429 -83 q 433 -88 433 -94 q 433 -112 408 -132 q 375 -158 331 -158 q 260 -158 218 -74 q 216 -69 181 31 q 156 16 144 9 q 108 -10 80 -10 q 40 -10 14 25 q -6 51 -6 90 q -6 183 58 303 q 134 448 299 603 q 269 597 219 572 q 207 565 201 565 q 196 565 187 572 q 179 579 179 588 q 179 600 195 611 q 224 631 269 646 q 314 663 360 663 q 426 663 460 625 q 495 587 495 534 q 495 451 429 331 q 375 231 300 147 q 292 138 229 72 z m 214 128 q 270 179 326 257 q 376 328 408 402 q 439 477 439 529 q 439 567 415 592 q 395 612 364 612 q 357 612 349 611 q 340 611 330 609 q 336 599 336 593 q 336 583 311 558 q 113 351 67 192 q 88 202 104 207 q 120 211 132 211 q 161 211 181 191 q 202 170 214 128 z m 166 85 q 160 125 146 145 q 132 165 110 165 q 99 165 85 159 q 71 153 54 141 q 52 120 52 108 q 52 84 60 71 q 71 51 91 51 q 109 51 128 60 q 147 68 166 85 z"},"w":{"x_min":0,"x_max":378,"ha":378,"o":"m 142 174 q 100 118 80 96 q 55 69 37 55 q 16 40 -1 40 q -19 40 -28 57 q -35 70 -35 86 q -35 140 28 233 q 86 317 114 317 q 121 317 127 311 q 133 305 133 297 q 133 287 114 268 q 73 228 43 177 q 18 134 18 121 q 18 111 27 111 q 56 111 154 238 q 186 279 192 286 q 205 297 218 297 q 227 297 233 292 q 239 288 239 282 q 239 276 215 233 q 162 139 162 106 q 162 94 172 94 q 190 94 221 134 q 250 172 275 231 q 286 256 294 298 q 304 345 333 345 q 350 345 350 327 q 350 263 278 151 q 204 34 153 34 q 116 34 116 81 q 116 119 142 174 z"},"-":{"x_min":0,"x_max":243,"ha":243,"o":"m 74 239 q 89 239 110 238 q 152 236 163 236 q 191 236 201 230 q 209 224 209 208 q 209 194 201 186 q 196 181 189 181 q 185 181 174 182 q 156 184 78 184 q 31 184 7 179 q -4 176 -10 176 q -23 176 -30 189 q -33 195 -33 204 q -33 229 -10 234 q 8 239 74 239 z"},"E":{"x_min":0,"x_max":394,"ha":394,"o":"m 208 399 l 228 403 q 336 423 378 423 q 409 423 409 398 q 409 383 397 377 q 389 374 369 373 q 242 365 176 343 q 150 304 101 199 q 72 137 56 85 q 67 89 78 93 q 150 117 184 125 q 229 133 270 133 q 296 133 309 127 q 320 122 320 106 q 320 91 306 86 q 300 84 276 84 q 146 77 45 21 q 32 13 23 13 q 9 13 -1 27 q -11 39 -11 51 q -11 63 20 141 q 66 259 146 399 q 170 441 237 542 q 252 565 267 588 q 247 593 247 614 q 247 629 263 637 q 288 648 360 660 q 468 676 543 676 q 586 676 586 654 q 586 638 571 627 q 564 622 548 622 q 547 622 537 623 q 529 623 521 623 q 485 623 419 615 q 361 609 320 597 q 325 589 325 585 q 325 577 302 547 l 278 511 q 228 437 208 399 z"},"s":{"x_min":0,"x_max":254,"ha":254,"o":"m 196 362 q 226 362 241 352 q 256 341 256 319 q 256 290 235 263 q 214 238 173 222 q 151 214 136 214 q 115 214 115 232 q 115 244 127 250 q 130 252 160 259 q 178 263 193 276 q 207 287 207 300 q 207 311 201 315 q 195 320 183 320 q 155 320 121 297 q 81 271 81 236 q 81 210 107 172 q 136 131 136 102 q 136 59 98 35 q 74 20 44 20 q -2 20 -27 53 q -44 77 -44 110 q -44 148 -24 174 q -12 191 2 191 q 14 191 14 181 q 14 177 10 169 q -1 148 -1 120 q -1 96 16 80 q 31 65 50 65 q 69 65 80 78 q 89 88 89 105 q 89 125 65 158 q 33 203 33 240 q 33 289 86 326 q 138 362 196 362 z"},">":{"x_min":0,"x_max":500,"ha":500,"o":"m 36 585 l 493 361 l 493 304 l 36 92 l 36 155 l 420 333 l 36 522 z"},"l":{"x_min":0,"x_max":215,"ha":215,"o":"m 52 200 q 37 162 30 139 q 22 115 22 106 q 22 94 34 94 q 52 94 80 127 q 93 143 119 185 q 129 202 140 202 q 153 202 153 189 q 153 168 104 104 q 54 38 11 38 q -7 38 -19 53 q -27 64 -27 81 q -27 108 -11 156 q 6 205 39 274 q 123 450 210 564 q 280 656 326 656 q 340 656 350 645 q 359 634 359 619 q 359 551 237 392 q 183 321 106 250 q 86 231 52 200 z m 86 278 q 188 365 268 498 q 310 566 310 589 q 310 600 300 600 q 273 600 203 493 q 144 405 86 278 z"},"8":{"x_min":0,"x_max":342,"ha":342,"o":"m 155 325 q 134 346 125 359 q 112 379 112 402 q 112 453 163 488 q 207 518 259 518 q 296 518 319 494 q 338 474 338 445 q 338 401 296 365 q 274 345 233 318 q 259 293 271 268 q 284 244 284 220 q 284 174 253 129 q 220 81 169 51 q 117 21 64 21 q 18 21 -12 54 q -34 80 -34 109 q -34 189 64 264 q 115 303 155 325 z m 202 354 q 231 370 252 390 q 278 416 278 439 q 278 454 269 463 q 259 475 242 475 q 214 475 189 455 q 168 438 168 416 q 168 399 187 375 z m 188 292 q 130 262 89 224 q 33 171 33 123 q 33 94 50 82 q 68 69 88 69 q 115 69 145 86 q 175 103 196 130 q 228 170 228 214 q 228 244 209 270 q 205 276 196 285 q 189 292 188 292 z"},"\\":{"x_min":0,"x_max":336,"ha":336,"o":"m 185 711 q 195 711 195 697 q 195 691 200 648 l 209 573 q 232 406 235 386 q 238 366 251 293 q 322 -74 355 -168 q 362 -189 364 -196 l 368 -212 q 372 -224 372 -227 q 372 -236 363 -246 q 353 -256 344 -256 q 334 -256 329 -236 q 328 -234 320 -214 q 299 -158 250 83 q 183 413 163 600 q 157 651 157 670 q 157 686 162 696 q 169 711 185 711 z"},"e":{"x_min":0,"x_max":274,"ha":274,"o":"m 10 132 l 10 123 q 10 112 15 104 q 27 86 55 86 q 116 86 196 180 q 210 196 220 196 q 226 196 230 191 q 233 187 233 184 q 233 165 186 119 q 149 83 108 61 q 66 39 31 39 q -6 39 -27 64 q -41 82 -41 112 q -41 194 37 273 q 100 338 146 338 q 159 338 169 330 q 182 320 182 303 q 182 277 158 240 q 109 162 10 132 z m 21 170 q 55 182 74 196 q 108 223 128 256 q 136 268 136 277 q 136 287 126 287 q 114 287 90 268 q 48 234 21 170 z"},"b":{"x_min":0,"x_max":278,"ha":278,"o":"m 112 294 q 153 330 187 330 q 207 330 220 312 q 232 297 232 277 q 232 239 208 185 q 180 125 127 73 q 83 30 44 30 q 29 30 17 36 q 5 41 -4 52 q -8 45 -9 43 q -17 25 -20 21 q -23 17 -30 17 q -39 17 -47 27 q -52 34 -52 42 q -52 56 4 180 q 83 354 186 526 q 228 596 237 608 q 248 623 256 623 q 267 623 275 612 q 281 605 281 596 q 281 586 271 570 q 270 567 241 520 q 152 383 112 294 z m 15 98 q 22 88 30 83 q 37 78 45 78 q 88 78 135 152 q 157 185 170 218 q 181 247 181 261 q 181 271 177 276 q 172 280 163 280 q 141 280 109 250 q 77 219 46 162 q 32 135 21 111 q 15 98 15 98 z"},"%":{"x_min":0,"x_max":597,"ha":597,"o":"m 263 552 q 279 545 287 531 q 295 518 295 496 q 295 430 242 357 q 184 277 129 277 q 102 277 87 305 q 79 322 79 347 q 79 405 123 469 q 159 520 210 556 q 234 573 246 573 q 263 573 263 552 z m 221 525 q 187 499 160 459 q 122 403 122 351 q 122 333 127 324 q 133 315 144 315 q 164 315 191 345 q 223 378 242 427 q 256 463 256 488 q 256 505 245 517 q 238 525 221 525 z m 541 583 q 550 583 556 575 q 562 569 562 562 q 562 521 375 331 q 257 209 208 141 q 164 79 128 16 q 115 -7 98 -7 q 91 -7 85 -2 q 79 4 79 12 q 79 25 111 76 q 147 133 233 237 q 265 275 361 375 q 440 456 493 534 q 514 566 521 572 q 531 583 541 583 z m 501 285 q 517 278 525 264 q 533 250 533 229 q 533 164 480 91 q 422 11 368 11 q 340 11 326 38 q 317 56 317 80 q 317 138 361 203 q 397 254 448 290 q 472 307 484 307 q 501 307 501 285 z m 459 259 q 425 232 398 193 q 360 137 360 84 q 360 67 365 58 q 371 49 382 49 q 401 49 430 78 q 461 112 480 160 q 494 197 494 222 q 494 238 483 250 q 476 259 459 259 z"},"m":{"x_min":0,"x_max":355,"ha":355,"o":"m 56 201 q 97 244 128 268 q 175 305 191 305 q 199 305 205 299 q 210 293 210 287 q 210 278 193 257 q 167 224 157 200 q 271 315 313 315 q 322 315 328 310 q 335 304 335 295 q 335 281 314 260 q 222 165 222 104 q 222 79 230 68 l 243 52 q 247 47 247 41 q 247 33 241 26 q 233 18 224 18 q 208 18 194 39 q 178 63 178 96 q 178 141 203 186 q 212 202 232 229 q 191 198 148 143 q 119 106 95 60 q 84 38 69 38 q 52 38 52 57 q 52 77 80 139 q 95 175 118 214 q 35 150 -7 40 q -18 15 -35 15 q -42 15 -47 21 q -53 27 -53 35 q -53 64 -21 139 q 13 219 56 282 q 85 327 101 327 q 116 327 116 311 q 116 304 98 277 q 66 226 56 201 z"},"#":{"x_min":0,"x_max":342,"ha":342,"o":"m 175 366 l 184 368 q 217 376 237 381 q 258 386 268 388 q 312 467 342 517 q 379 577 383 582 q 391 592 398 592 q 408 592 416 582 q 421 575 421 566 q 421 557 413 542 q 411 539 383 494 q 336 420 321 394 q 356 388 356 365 q 356 356 352 350 q 346 343 338 343 q 333 343 322 346 q 313 348 303 348 q 300 348 295 348 q 281 322 255 267 q 293 262 293 238 q 293 230 288 224 q 282 217 275 217 q 270 217 258 220 q 250 222 241 222 q 239 222 233 221 q 217 190 199 154 q 173 103 151 49 l 146 41 q 139 23 135 20 q 132 16 126 16 q 118 16 110 26 q 105 33 105 40 q 105 58 177 211 q 169 209 157 207 q 140 202 108 196 q 102 194 88 191 q 80 174 69 154 q 44 105 21 49 l 17 41 q 9 23 6 20 q 2 16 -4 16 q -12 16 -20 26 q -25 32 -25 40 q -25 56 35 184 q 27 184 20 184 q -15 184 -15 206 q -15 218 -5 226 q 2 232 11 232 q 15 232 22 231 q 34 229 44 229 q 47 229 56 230 q 74 267 97 311 q 85 311 83 311 q 49 311 49 332 q 49 344 58 352 q 66 359 75 359 q 79 359 85 358 q 97 356 107 356 q 112 356 121 356 q 175 457 212 517 q 249 576 253 582 q 261 592 268 592 q 278 592 287 582 q 292 575 292 566 q 292 557 283 542 q 281 539 253 494 q 200 410 175 366 z m 149 318 q 144 306 131 280 q 123 261 112 239 q 155 250 174 254 q 188 257 201 261 q 219 296 241 338 l 231 336 q 204 329 172 322 q 165 321 149 318 z"},",":{"x_min":0,"x_max":207,"ha":207,"o":"m 17 72 q 40 72 40 43 q 40 -1 -10 -73 q -30 -103 -57 -127 q -75 -143 -85 -143 q -96 -143 -102 -134 q -106 -128 -106 -120 q -106 -109 -85 -90 q -26 -33 -16 43 q -13 58 -2 65 q 7 72 17 72 z"},"n":{"x_min":0,"x_max":257,"ha":257,"o":"m 62 206 q 68 211 74 217 q 176 317 211 317 q 230 317 230 296 q 230 281 213 261 q 120 152 120 69 q 120 42 134 18 q 141 7 141 0 q 141 -5 135 -11 q 129 -18 120 -18 q 100 -18 86 8 q 73 32 73 66 q 73 132 123 212 q 57 169 0 62 q -15 36 -32 36 q -40 36 -45 42 q -52 48 -52 59 q -52 85 8 197 q 40 258 59 285 q 77 312 90 312 q 97 312 103 306 q 109 299 109 291 q 109 280 95 260 q 75 230 62 206 z"},"h":{"x_min":0,"x_max":312,"ha":312,"o":"m 90 238 q 126 275 163 301 q 209 333 229 333 q 237 333 245 326 q 254 318 254 308 q 254 295 233 267 q 192 213 171 169 q 153 131 153 118 q 153 104 166 104 q 192 104 254 198 q 267 217 277 217 q 288 217 288 206 q 288 187 250 133 q 218 86 183 61 q 158 44 138 44 q 117 44 108 62 q 102 73 102 87 q 102 130 133 186 q 140 199 177 261 q 77 211 8 44 q 2 25 -11 25 q -21 25 -26 31 q -32 38 -32 48 q -32 64 -1 139 q 57 279 107 375 q 158 473 219 578 q 234 604 242 612 q 250 621 260 621 q 269 621 275 612 q 280 605 280 596 q 280 583 264 560 q 211 478 159 380 q 103 276 90 238 z"},"z":{"x_min":0,"x_max":219,"ha":219,"o":"m 8 95 q 53 110 86 110 q 143 110 143 81 q 143 72 136 64 q 129 57 121 57 q 115 57 98 62 q 87 64 78 64 q 36 64 -1 47 q -27 34 -36 34 q -47 34 -56 42 q -63 48 -63 57 q -63 77 -16 137 q 56 227 136 290 q 83 283 63 283 q 17 283 17 311 q 17 320 22 326 q 28 331 35 331 q 41 331 61 328 q 68 326 84 326 q 126 326 166 335 q 181 339 192 339 q 204 339 212 330 q 219 324 219 314 q 219 298 191 279 q 111 216 79 182 q 32 133 8 95 z"},"B":{"x_min":0,"x_max":447,"ha":447,"o":"m 279 382 q 325 366 349 341 q 389 299 389 243 q 389 176 348 116 q 310 61 251 29 q 191 -3 128 -3 q 80 -3 23 21 q 19 8 18 4 q 11 -19 -2 -19 q -17 -19 -27 -3 q -34 8 -34 20 q -34 37 -13 92 q 31 204 64 268 q 85 308 149 418 q 178 466 231 549 q 244 568 255 588 q 231 581 194 563 q 163 548 158 548 q 150 548 145 556 q 140 563 140 573 q 140 588 150 595 q 168 608 216 627 q 316 668 378 668 q 430 668 462 642 q 494 616 494 577 q 494 497 401 438 q 345 403 279 382 z m 206 413 q 289 428 362 472 q 447 523 447 574 q 447 597 425 610 q 410 619 384 619 q 367 619 347 615 q 328 612 306 604 q 314 598 314 589 q 314 576 298 555 q 292 547 278 526 q 273 517 246 477 q 219 437 206 413 z m 37 63 q 53 53 61 50 q 82 42 117 42 q 221 42 283 125 q 336 194 336 262 q 336 308 296 334 q 272 350 240 350 q 228 350 204 345 q 199 344 195 344 q 183 344 175 361 q 136 301 87 194 q 62 140 37 63 z"},"K":{"x_min":0,"x_max":462,"ha":462,"o":"m 255 459 q 276 470 340 510 q 358 521 441 568 q 475 586 527 610 q 559 625 570 625 q 577 625 583 620 q 591 612 591 601 q 591 587 579 579 q 573 575 548 567 q 392 506 288 418 q 274 365 266 315 q 250 208 250 134 q 250 107 257 94 q 263 81 276 81 q 302 81 379 189 q 394 210 403 210 q 414 210 414 196 q 414 177 372 115 q 311 25 260 25 q 218 25 205 70 q 196 98 196 141 q 196 226 217 322 q 239 418 243 442 q 216 392 141 271 q 52 116 34 25 q 27 -5 7 -5 q -7 -5 -14 8 q -18 15 -18 26 q -18 64 21 152 q 44 202 83 274 q 98 301 148 381 q 260 557 289 638 q 299 667 304 673 q 313 685 326 685 q 333 685 338 680 q 345 674 345 664 q 345 621 255 459 z"},"R":{"x_min":0,"x_max":440,"ha":440,"o":"m 137 253 q 73 129 48 55 q 34 12 28 7 q 21 0 7 0 q -4 0 -11 8 q -17 15 -17 23 q -17 46 27 145 q 59 216 110 307 q 104 330 104 341 q 104 358 116 368 q 123 373 130 373 q 137 373 147 368 q 155 380 202 461 q 244 542 248 557 q 235 551 227 546 q 219 542 214 542 q 208 542 203 549 q 200 554 200 561 q 200 585 232 604 q 255 617 277 626 q 284 649 288 656 q 294 669 310 669 q 326 669 338 651 q 361 658 382 661 q 403 665 421 665 q 478 665 507 632 q 535 602 535 558 q 535 486 479 422 q 426 362 338 331 q 271 306 206 306 q 194 306 171 308 q 179 278 192 248 q 215 200 258 109 q 270 85 298 41 q 305 29 305 20 q 305 10 294 2 q 283 -6 275 -6 q 263 -6 250 20 q 243 32 232 50 q 195 112 137 253 z m 197 358 q 215 357 225 357 q 326 357 414 428 q 452 459 476 500 q 491 526 491 554 q 491 583 473 597 q 455 612 418 612 q 385 612 351 599 q 338 594 313 583 q 296 544 258 470 q 219 396 197 358 z"},"T":{"x_min":0,"x_max":451,"ha":451,"o":"m 359 594 q 262 579 178 555 q 161 549 151 549 q 140 549 132 559 q 127 565 127 573 q 127 594 157 604 q 238 628 348 648 q 486 673 613 673 q 656 673 670 668 q 684 663 684 649 q 684 626 650 623 q 621 620 562 618 q 444 614 401 604 q 413 599 413 588 q 413 578 397 555 q 305 419 220 247 q 156 116 126 14 q 119 -17 103 -17 q 87 -17 77 -1 q 70 9 70 21 q 70 65 156 239 q 210 351 257 428 q 275 459 346 573 z"},"P":{"x_min":0,"x_max":440,"ha":440,"o":"m 165 271 l 158 257 q 107 151 90 106 q 63 36 60 24 q 50 -8 33 -8 q 21 -8 13 2 q 6 12 6 22 q 6 64 114 288 q 94 302 94 317 q 94 328 104 336 q 112 343 122 343 q 129 343 140 340 q 220 491 233 533 q 221 526 202 513 q 191 506 183 506 q 174 506 168 516 q 164 522 164 529 q 164 552 204 578 q 235 599 263 613 q 267 625 268 629 q 273 648 278 654 q 284 661 295 661 q 318 661 318 635 q 352 645 377 650 q 403 655 421 655 q 469 655 501 619 q 532 584 532 542 q 532 468 471 395 q 418 332 340 297 q 272 267 205 267 q 189 267 165 271 z m 301 569 q 285 521 249 445 q 204 354 190 325 q 217 320 228 320 q 284 320 358 365 q 430 409 470 474 q 495 514 495 544 q 495 572 476 586 q 458 600 419 600 q 391 600 361 593 q 332 585 301 569 z"},"|":{"x_min":0,"x_max":500,"ha":500,"o":"m 265 667 l 315 667 l 315 -167 l 265 -167 z"},"t":{"x_min":0,"x_max":244,"ha":244,"o":"m 150 353 q 119 303 92 242 q 53 155 53 112 q 53 100 58 94 q 63 87 74 87 q 98 87 133 133 q 155 162 172 190 q 181 206 192 206 q 198 206 203 202 q 207 197 207 193 q 207 175 159 112 q 103 37 56 37 q 31 37 14 60 q 4 75 4 102 q 4 161 38 239 q 46 259 84 333 q 71 330 64 330 q 54 330 46 335 q 35 342 35 352 q 35 364 49 372 q 53 374 85 378 q 97 380 120 387 q 137 418 175 471 q 197 500 205 509 q 217 521 226 521 q 232 521 238 514 q 244 508 244 501 q 244 489 217 451 q 199 427 190 412 q 244 426 268 426 q 294 426 294 404 q 294 393 285 387 q 280 384 260 382 q 251 383 186 364 q 168 358 150 353 z"},"M":{"x_min":0,"x_max":568,"ha":568,"o":"m 240 190 q 255 213 312 301 q 360 375 466 516 q 528 598 578 653 q 607 686 630 686 q 644 686 652 677 q 660 669 660 658 q 660 642 640 606 q 636 599 600 535 q 536 421 513 372 q 450 238 420 144 q 403 88 403 62 q 403 56 404 49 q 407 30 407 27 q 407 13 396 0 q 387 -11 375 -11 q 361 -11 353 5 q 345 18 345 40 q 345 178 576 583 q 455 454 309 213 q 276 161 255 143 q 235 125 216 125 q 198 125 189 141 q 183 151 183 166 q 183 288 328 550 q 279 500 233 433 q 151 311 86 182 q 55 120 11 16 q -11 -37 -40 -37 q -47 -37 -52 -30 q -56 -26 -56 -20 q -56 -10 -38 31 q 1 123 21 163 q 126 367 270 547 q 330 623 353 645 q 377 668 393 668 q 402 668 412 659 q 423 649 423 636 q 423 621 402 587 q 344 492 294 373 q 252 265 240 190 z"},"g":{"x_min":0,"x_max":305,"ha":305,"o":"m 118 80 q 170 118 195 149 q 233 195 249 223 q 256 236 265 236 q 276 236 276 225 q 276 211 258 181 q 200 87 85 17 q 31 -95 6 -135 q -62 -241 -121 -241 q -152 -241 -166 -216 q -174 -202 -174 -184 q -174 -107 -75 -37 q -60 -25 51 36 q 73 82 84 107 q 33 54 0 54 q -21 54 -33 75 q -41 89 -41 104 q -41 140 -12 195 q 29 274 87 321 q 135 359 172 359 q 191 359 205 345 q 214 336 214 318 q 214 295 199 262 q 210 251 210 246 q 210 243 206 236 q 192 218 163 168 q 137 125 118 80 z m 114 193 q 107 200 107 203 q 107 208 115 214 q 139 238 154 263 q 167 283 167 294 q 167 308 154 308 q 133 308 94 268 q 48 220 22 162 q 9 132 9 117 q 9 108 13 104 q 17 99 24 99 q 42 99 72 134 q 92 157 105 178 q 115 192 114 193 z m 22 -21 q -42 -48 -92 -104 q -115 -129 -125 -158 q -127 -167 -127 -173 q -127 -179 -125 -184 q -119 -193 -109 -193 q -79 -193 -39 -128 q -3 -72 22 -21 z"},"j":{"x_min":0,"x_max":222,"ha":222,"o":"m -33 34 l -23 54 l 6 117 q 67 249 86 282 q 115 333 138 333 q 145 333 151 327 q 157 321 157 315 q 157 306 128 264 q 110 238 74 167 q 45 109 32 76 q 69 101 93 125 q 121 152 147 193 q 159 212 169 212 q 174 212 178 208 q 183 203 183 197 q 183 180 162 151 q 112 79 4 17 q -6 0 -29 -50 q -68 -140 -110 -195 q -133 -225 -165 -244 q -187 -257 -210 -257 q -237 -257 -256 -235 q -268 -222 -268 -202 q -268 -150 -215 -89 q -152 -14 -33 34 z m -61 -18 q -106 -36 -159 -86 q -221 -145 -221 -188 q -221 -198 -216 -203 q -211 -208 -202 -208 q -181 -208 -158 -186 q -120 -148 -61 -18 z m 227 509 q 249 509 249 487 q 249 466 227 441 q 207 417 188 417 q 178 417 172 424 q 167 431 167 440 q 167 463 192 490 q 211 509 227 509 z"},"i":{"x_min":0,"x_max":132,"ha":132,"o":"m 100 331 q 108 331 113 324 q 117 319 117 313 q 117 305 103 284 q 52 206 31 155 q 8 103 -10 47 q -18 23 -34 23 q -44 23 -50 31 q -55 37 -55 44 q -55 59 -24 142 q 0 208 55 287 q 73 312 82 321 q 90 331 100 331 z m 192 512 q 214 512 214 489 q 214 469 193 444 q 172 420 153 420 q 144 420 138 427 q 132 433 132 442 q 132 466 158 492 q 177 512 192 512 z"},"y":{"x_min":0,"x_max":337,"ha":337,"o":"m 147 175 q 104 124 78 99 q 26 50 -8 50 q -24 50 -34 62 q -42 72 -42 86 q -42 139 21 227 q 84 315 113 315 q 121 315 126 309 q 132 303 132 296 q 132 285 126 277 q 121 269 94 241 q 66 212 43 179 q 16 141 16 123 q 16 113 26 113 q 45 113 99 166 q 133 200 152 223 q 156 228 186 269 q 213 306 220 312 q 234 330 247 330 q 255 330 261 323 q 267 316 267 308 q 267 294 248 261 q 224 220 205 185 q 174 130 157 87 q 188 105 214 132 q 258 176 268 197 q 277 217 287 217 q 301 217 301 203 q 301 177 257 126 q 204 64 127 21 q 86 -77 49 -142 q -19 -262 -92 -262 q -122 -262 -140 -239 q -154 -221 -154 -194 q -154 -118 -47 -39 q -16 -15 46 20 q 71 34 85 43 q 94 65 112 103 q 132 143 147 175 z m 57 -17 q 5 -43 -49 -92 q -104 -143 -104 -186 q -104 -195 -98 -202 q -91 -210 -79 -210 q -42 -210 2 -134 q 9 -121 42 -49 q 49 -35 57 -17 z"},"@":{"x_min":0,"x_max":682,"ha":682,"o":"m 511 450 q 519 438 519 429 q 519 419 502 391 q 489 368 477 334 q 462 293 462 267 q 462 240 477 227 q 489 215 504 215 q 527 215 555 236 q 591 263 618 323 q 647 388 647 454 q 647 521 607 573 q 563 629 493 629 q 394 629 300 557 q 217 494 175 399 q 141 325 141 247 q 141 185 166 132 q 208 41 308 41 q 355 41 423 71 q 448 82 490 108 q 500 114 510 114 q 520 114 526 106 q 530 101 530 95 q 530 78 503 58 q 464 27 390 5 q 342 -9 304 -9 q 248 -9 200 20 q 148 51 122 103 q 90 166 90 240 q 90 343 142 443 q 190 538 277 600 q 382 675 498 675 q 559 675 608 639 q 646 610 667 563 q 692 509 692 448 q 692 357 647 279 q 616 225 573 196 q 535 171 496 171 q 459 171 433 203 q 417 222 417 247 q 417 257 421 275 q 407 249 389 229 q 357 195 332 195 q 307 195 292 216 q 277 236 277 267 q 277 305 301 358 q 330 424 380 471 q 428 517 473 517 q 498 517 512 499 q 521 487 521 474 q 521 462 511 450 z m 480 446 q 475 455 469 459 q 463 463 456 463 q 422 463 382 408 q 328 332 328 277 q 328 265 334 258 q 339 252 345 252 q 363 252 384 281 q 422 332 456 408 q 466 433 480 446 z"},".":{"x_min":0,"x_max":207,"ha":207,"o":"m 18 74 q 28 74 36 64 q 41 58 41 48 q 41 25 28 0 q 15 -27 -7 -27 q -29 -27 -29 -2 q -29 23 -14 50 q 0 74 18 74 z"},"p":{"x_min":0,"x_max":264,"ha":264,"o":"m 112 297 q 132 310 142 315 q 162 325 181 325 q 203 325 213 312 q 224 300 224 275 q 224 241 200 193 q 163 117 110 74 q 66 37 27 37 q 5 37 -16 54 q -83 -82 -135 -222 q -146 -256 -162 -256 q -169 -256 -176 -246 q -182 -239 -182 -231 q -182 -205 -117 -60 q -18 164 72 312 q 90 343 97 355 q 114 387 130 387 q 146 387 146 367 q 146 355 135 336 q 121 312 112 297 z m 2 95 q 13 83 29 83 q 75 83 130 164 q 150 194 163 225 q 172 250 172 263 q 172 271 168 276 q 164 280 155 280 q 132 280 99 249 q 67 218 38 162 q 11 111 2 95 z"},"X":{"x_min":0,"x_max":429,"ha":429,"o":"m 220 376 q 220 384 220 389 q 220 434 209 538 q 202 610 190 642 q 184 660 184 663 q 184 672 192 680 q 200 686 210 686 q 227 686 235 667 q 250 629 259 547 q 265 497 271 430 q 385 542 447 595 q 533 667 548 667 q 558 667 564 657 q 568 650 568 643 q 568 623 544 602 q 531 591 466 538 q 387 473 275 358 q 278 105 327 -15 q 331 -26 331 -35 q 331 -45 323 -54 q 314 -63 301 -63 q 282 -63 271 -38 q 253 11 241 120 q 230 220 226 308 q 55 131 -25 17 q -43 -12 -58 -12 q -68 -12 -75 -2 q -81 4 -81 11 q -81 28 -50 67 q 87 236 220 376 z"},"*":{"x_min":0,"x_max":342,"ha":342,"o":"m 324 547 q 375 554 392 562 q 415 574 424 574 q 429 574 434 569 q 439 564 439 559 q 439 538 402 522 q 377 512 353 512 q 346 512 331 514 q 341 487 351 475 q 356 468 380 444 q 390 434 390 424 q 390 419 388 416 q 382 407 374 407 q 351 407 323 442 q 309 460 295 494 q 268 478 251 450 q 240 431 232 421 q 224 409 213 409 q 208 409 202 415 q 195 421 195 430 q 195 452 221 486 q 235 503 263 527 q 234 554 216 564 q 200 573 193 579 q 184 585 184 597 q 184 605 191 611 q 197 615 204 615 q 233 615 286 563 q 294 593 295 610 q 297 644 303 651 q 310 662 320 662 q 332 662 339 651 q 344 644 344 635 q 344 610 324 547 z"},"Y":{"x_min":0,"x_max":412,"ha":412,"o":"m 309 356 q 271 319 215 270 q 184 242 160 225 q 134 206 106 206 q 79 206 64 235 q 56 251 56 269 q 56 331 106 422 q 150 503 229 580 q 306 657 338 657 q 346 657 352 651 q 357 645 357 637 q 357 623 348 614 q 340 607 325 598 q 297 581 257 542 q 192 478 154 404 q 112 323 112 289 q 112 282 117 276 q 123 268 132 268 q 151 268 196 303 q 250 345 283 381 q 379 485 428 550 q 474 613 506 651 q 533 683 547 683 q 557 683 564 673 q 569 665 569 655 q 569 638 551 614 q 418 440 375 377 q 311 280 263 176 q 208 58 196 19 q 185 -18 175 -28 q 165 -38 153 -38 q 130 -38 130 -16 q 130 8 161 82 q 197 169 249 256 q 293 329 309 356 z"},"c":{"x_min":0,"x_max":273,"ha":273,"o":"m 148 341 q 187 341 187 300 q 187 265 159 229 q 138 201 122 201 q 108 201 108 217 q 108 225 112 230 q 113 232 124 241 q 132 250 142 266 q 148 277 148 284 q 148 292 139 292 q 129 292 108 276 q 75 250 42 195 q 7 137 7 104 q 7 93 14 85 q 23 72 39 72 q 69 72 111 110 q 147 143 171 176 q 184 194 193 194 q 199 194 203 189 q 207 184 207 179 q 207 161 161 109 q 87 27 27 27 q -9 27 -28 53 q -42 72 -42 98 q -42 148 0 215 q 41 279 94 318 q 125 341 148 341 z"},"!":{"x_min":0,"x_max":262,"ha":262,"o":"m 340 654 q 351 654 357 645 q 362 638 362 628 q 362 608 333 553 q 212 328 116 177 q 100 152 96 144 q 83 120 70 120 q 60 120 53 131 q 46 141 46 151 q 46 165 61 189 q 64 196 95 243 q 133 308 171 371 q 184 393 248 510 q 270 551 283 574 q 299 602 313 632 q 324 654 340 654 z m 23 74 q 34 74 41 64 q 46 58 46 48 q 46 25 33 0 q 20 -27 -1 -27 q -24 -27 -24 -2 q -24 23 -8 50 q 6 74 23 74 z"},"/":{"x_min":0,"x_max":336,"ha":336,"o":"m 504 715 q 510 715 516 709 q 520 704 520 698 q 520 687 503 668 q 496 660 490 653 q 484 646 465 624 q 401 554 225 327 q 109 178 35 79 q -35 -21 -103 -116 l -156 -191 q -184 -233 -188 -240 q -197 -256 -209 -256 q -225 -256 -225 -243 q -225 -227 -187 -170 q -71 4 149 291 q 391 604 454 672 q 479 699 484 704 q 496 715 504 715 z"},"[":{"x_min":0,"x_max":424,"ha":424,"o":"m 459 667 q 409 599 386 562 q 362 524 326 458 q 167 157 101 -32 q 63 -139 56 -213 q 64 -215 73 -216 q 81 -217 89 -217 q 105 -217 137 -212 q 150 -209 159 -209 q 169 -209 177 -216 q 184 -222 184 -230 q 184 -242 167 -250 q 147 -260 83 -260 q 52 -260 30 -254 q 16 -250 11 -243 q 7 -237 7 -222 q 7 -164 55 -23 q 129 190 286 475 q 376 636 414 684 q 431 706 453 711 q 470 716 513 716 q 562 716 575 710 q 591 705 591 690 q 591 678 581 672 q 572 667 562 667 q 555 667 527 668 q 518 669 506 669 q 489 669 459 667 z"},"6":{"x_min":0,"x_max":342,"ha":342,"o":"m 107 301 q 181 328 214 328 q 254 328 273 305 q 291 285 291 252 q 291 169 216 90 q 148 16 77 16 q 32 16 4 55 q -17 85 -17 125 q -17 212 50 305 q 108 385 216 452 q 249 473 264 480 q 279 488 291 488 q 310 488 310 472 q 310 457 290 446 q 188 392 107 301 z m 67 241 q 37 191 37 144 q 37 112 52 89 q 67 65 91 65 q 125 65 161 98 q 196 130 219 185 q 233 219 233 244 q 233 263 222 274 q 209 287 189 287 q 157 287 109 265 q 97 259 81 250 q 68 242 67 241 z"},"r":{"x_min":0,"x_max":306,"ha":306,"o":"m 61 199 q 108 250 171 299 q 193 316 219 332 q 231 339 235 339 q 242 339 250 328 q 254 322 254 317 q 254 309 235 293 q 186 254 186 234 q 186 223 198 223 q 219 223 271 257 q 279 263 285 263 q 289 263 293 259 q 297 255 297 250 q 297 235 256 205 q 213 173 175 173 q 159 173 146 181 q 135 188 135 206 q 135 218 145 233 q 106 206 54 140 q 24 99 -6 39 q -17 16 -34 16 q -52 16 -52 33 q -52 50 -23 122 q 19 229 64 289 q 93 325 112 325 q 118 325 124 321 q 130 316 130 309 q 130 302 120 289 q 118 286 94 256 q 72 227 61 199 z"},"2":{"x_min":0,"x_max":342,"ha":342,"o":"m 5 77 q 87 103 156 103 q 183 103 200 91 q 214 82 214 67 q 214 58 208 51 q 201 43 192 43 q 189 43 183 45 q 158 52 137 52 q 119 52 93 48 q 83 47 25 31 q -28 17 -38 17 q -51 17 -62 30 q -71 42 -71 55 q -71 70 -45 95 q 2 142 47 179 q 89 214 151 260 q 222 312 249 336 q 289 372 289 407 q 289 426 276 438 q 265 447 248 447 q 204 447 144 398 q 117 375 110 375 q 105 375 99 381 q 92 387 92 396 q 92 413 134 445 q 203 497 265 497 q 300 497 324 474 q 347 452 347 421 q 347 366 292 312 q 268 289 204 242 q 50 130 5 77 z"},"{":{"x_min":0,"x_max":424,"ha":424,"o":"m 163 209 q 178 189 178 172 q 178 144 149 88 q 129 47 90 -68 q 68 -131 68 -166 q 68 -188 84 -200 q 100 -212 117 -212 q 124 -212 138 -210 q 154 -207 162 -207 q 185 -207 185 -228 q 185 -259 112 -259 q 67 -259 45 -237 q 18 -210 18 -167 q 18 -131 42 -61 q 72 27 112 126 q 125 157 125 170 q 125 183 115 191 q 111 195 95 203 q 76 211 76 227 q 76 253 115 252 q 139 252 152 257 q 174 266 200 312 q 321 544 364 606 q 418 682 465 701 q 500 715 548 715 q 592 715 592 691 q 592 681 584 673 q 576 665 561 665 q 554 665 544 666 q 533 667 526 667 q 489 667 457 643 q 415 610 377 544 q 323 451 233 272 q 212 230 163 209 z"},"9":{"x_min":0,"x_max":342,"ha":342,"o":"m 224 238 q 156 205 117 205 q 78 205 57 237 q 41 260 41 292 q 41 376 115 454 q 183 524 255 524 q 296 524 321 495 q 342 470 342 432 q 342 347 282 241 q 249 183 179 106 q 101 19 77 19 q 70 19 64 25 q 59 30 59 37 q 59 48 79 65 q 170 141 224 238 z m 252 296 q 287 366 287 412 q 287 445 275 462 q 263 479 239 479 q 189 479 141 420 q 93 363 93 307 q 93 281 105 269 q 117 256 141 256 q 173 256 217 275 q 250 291 252 296 z"}," ":{"x_min":0,"x_max":250,"ha":250,"o":""},"I":{"x_min":0,"x_max":226,"ha":226,"o":"m 341 661 q 349 661 356 652 q 362 645 362 636 q 362 624 349 603 q 343 593 301 535 q 107 268 51 52 q 45 18 25 18 q 14 18 6 28 q -2 37 -2 49 q -2 73 21 139 q 75 292 214 503 q 271 590 306 634 q 329 661 341 661 z"},"H":{"x_min":0,"x_max":459,"ha":459,"o":"m 340 338 q 240 318 132 275 q 128 267 124 259 q 57 129 33 14 q 28 -14 11 -14 q -1 -14 -11 -1 q -19 9 -19 20 q -19 34 -7 77 q 5 120 19 153 q 23 165 49 224 q 56 238 62 254 q 52 250 34 242 q 26 239 20 239 q 4 239 4 262 q 4 277 17 285 q 27 291 52 300 q 78 310 93 316 q 103 333 130 386 q 135 396 163 442 q 243 576 267 632 q 289 684 294 690 q 304 703 317 703 q 340 703 340 681 q 340 629 201 404 q 178 367 167 339 l 191 346 q 291 375 373 396 q 429 500 510 626 q 524 648 527 654 q 539 675 552 675 q 563 675 570 666 q 576 658 576 648 q 576 631 557 598 q 553 590 517 536 q 455 439 438 406 q 453 408 460 408 q 499 408 499 389 q 499 377 486 366 q 477 357 466 357 l 447 357 q 435 357 412 353 q 308 168 276 29 q 269 -2 252 -2 q 239 -2 228 14 q 221 25 221 38 q 221 84 340 338 z"},"4":{"x_min":0,"x_max":342,"ha":342,"o":"m 211 226 q 206 214 182 165 q 144 72 135 43 q 131 27 125 20 q 119 14 107 14 q 95 14 87 22 q 81 30 81 41 q 81 77 146 218 q 75 210 34 193 q 21 188 13 188 q -7 188 -7 219 q -7 237 7 254 q 35 286 100 350 q 180 429 245 478 q 301 521 326 521 q 337 521 346 511 q 354 503 354 494 q 354 482 339 458 q 336 454 307 406 q 269 345 236 278 q 271 280 282 280 q 311 280 311 258 q 311 239 295 231 q 288 228 253 228 q 243 228 211 226 z m 173 271 q 227 375 274 444 q 223 416 151 345 q 99 293 67 254 q 138 269 173 271 z"},"~":{"x_min":0,"x_max":667,"ha":667,"o":"m 166 591 l 134 611 q 154 649 171 669 q 210 717 266 717 q 304 717 381 678 q 432 653 450 648 q 467 643 482 643 q 519 643 544 669 q 561 687 580 719 l 613 700 q 559 595 479 595 q 455 595 414 610 q 406 613 338 646 q 290 669 261 669 q 210 669 166 591 z"},"D":{"x_min":0,"x_max":461,"ha":461,"o":"m 229 556 q 215 549 204 540 q 183 522 172 522 q 165 522 158 528 q 151 535 151 543 q 151 562 199 597 q 271 652 359 652 q 427 652 467 607 q 503 567 503 511 q 503 417 434 291 q 353 143 223 45 q 126 -27 52 -27 q 22 -27 7 -9 q -5 5 -5 22 q -5 47 27 134 q 76 265 148 407 q 159 429 229 556 z m 274 579 q 289 571 289 562 q 289 556 271 522 q 179 359 116 209 q 59 74 59 43 q 59 24 78 24 q 109 24 162 58 q 228 99 307 197 q 378 285 420 384 q 452 460 452 519 q 452 561 432 582 q 411 603 370 603 q 329 603 274 579 z"},"^":{"x_min":0,"x_max":500,"ha":500,"o":"m 129 377 l 73 377 l 257 668 l 323 668 l 506 377 l 449 377 l 289 628 z"},"0":{"x_min":0,"x_max":342,"ha":342,"o":"m 279 474 q 305 463 318 441 q 331 418 331 383 q 331 274 246 151 q 154 18 69 18 q 27 18 6 62 q -7 90 -7 130 q -7 227 63 334 q 100 389 163 448 q 228 508 257 508 q 279 508 279 474 z m 215 438 q 158 392 114 324 q 51 228 51 137 q 51 110 59 95 q 71 72 92 72 q 126 72 173 124 q 225 181 255 264 q 278 327 278 371 q 278 401 259 422 q 247 438 226 438 q 220 438 215 438 z"},"F":{"x_min":0,"x_max":394,"ha":394,"o":"m 334 594 q 309 565 267 500 q 224 434 206 397 q 311 418 352 418 q 371 418 381 415 q 393 411 393 396 q 393 366 359 366 q 357 366 351 366 q 336 367 330 367 q 281 367 169 335 q 98 212 43 42 q 36 16 21 16 q 7 16 -2 31 q -10 42 -10 54 q -10 66 17 140 q 62 260 144 398 q 196 485 259 582 q 242 584 242 600 q 242 624 289 637 q 353 655 414 665 q 483 676 520 676 q 577 676 577 647 q 577 632 563 623 q 558 619 551 619 q 545 619 535 621 q 518 623 506 623 q 479 623 417 613 q 372 606 334 594 z"},"`":{"x_min":0,"x_max":500,"ha":500,"o":"m 313 540 q 326 540 340 519 q 345 511 362 489 q 379 467 385 460 q 403 438 403 427 q 403 410 388 410 q 376 410 360 428 q 293 503 293 522 q 293 528 298 533 q 304 540 313 540 z"},"k":{"x_min":0,"x_max":355,"ha":355,"o":"m 172 247 q 140 168 140 127 q 140 107 148 94 q 158 78 174 78 q 207 78 250 122 q 279 150 299 180 q 312 199 323 199 q 334 199 334 188 q 334 169 289 112 q 223 26 160 26 q 123 26 107 63 q 95 90 95 120 q 95 145 107 193 q 75 167 11 64 q -6 37 -21 37 q -28 37 -33 43 q -39 50 -39 57 q -39 76 13 187 q 103 381 206 513 q 262 585 306 619 q 346 649 370 649 q 381 649 389 640 q 400 629 400 614 q 400 572 356 507 q 311 440 202 346 q 141 293 92 263 q 86 250 57 188 q 118 254 153 279 q 176 295 215 312 q 242 323 253 323 q 260 323 265 318 q 270 314 270 307 q 270 291 248 284 q 211 273 172 247 z m 130 331 q 210 384 279 465 q 314 506 335 543 q 350 570 350 581 q 350 592 339 592 q 312 592 245 508 q 190 438 130 331 z"},"u":{"x_min":0,"x_max":260,"ha":260,"o":"m 108 113 q 87 83 71 66 q 42 35 15 35 q -9 35 -22 56 q -32 71 -32 92 q -32 155 22 237 q 47 275 71 295 q 90 311 103 311 q 109 311 115 305 q 120 300 120 294 q 120 285 102 264 q 62 216 41 175 q 16 128 16 101 q 16 94 19 91 q 22 87 28 87 q 53 87 98 158 q 121 195 137 240 q 146 265 160 284 q 174 301 187 301 q 194 301 200 294 q 207 288 207 279 q 207 262 173 200 q 150 158 150 129 q 150 99 166 78 q 170 72 193 59 q 204 53 204 39 q 204 30 196 23 q 188 17 178 17 q 153 17 133 37 q 115 54 110 87 q 109 92 108 113 z"},"]":{"x_min":0,"x_max":424,"ha":424,"o":"m -68 -212 q -19 -143 5 -106 q 29 -68 64 -2 q 224 298 290 488 q 328 594 335 668 q 326 670 318 671 q 310 672 302 672 q 286 672 254 667 q 240 665 232 665 q 222 665 214 671 q 207 677 207 686 q 207 698 224 706 q 244 716 309 716 q 339 716 361 709 q 375 705 380 698 q 384 692 384 678 q 384 619 336 479 q 262 265 104 -19 q 15 -181 -22 -228 q -40 -250 -62 -255 q -80 -260 -123 -260 q -171 -260 -184 -255 q -200 -249 -200 -234 q -200 -223 -190 -216 q -182 -211 -170 -211 q -163 -211 -137 -212 q -128 -213 -116 -213 q -100 -213 -68 -212 z"},"U":{"x_min":0,"x_max":520,"ha":520,"o":"m 453 426 q 409 375 270 186 q 212 107 161 54 q 104 -6 65 -6 q 39 -6 22 22 q 11 42 11 70 q 11 159 89 313 q 166 462 288 604 q 339 662 359 662 q 365 662 372 657 q 380 649 380 639 q 380 625 357 601 q 352 596 281 513 q 190 406 121 265 q 92 204 75 147 q 63 108 63 85 q 63 75 68 67 q 74 58 84 58 q 103 58 139 99 q 229 202 432 468 q 483 536 548 609 q 565 629 576 638 q 586 647 600 647 q 609 647 616 640 q 622 633 622 625 q 622 613 600 580 q 489 413 425 262 q 362 113 359 41 q 358 15 356 9 q 352 0 342 0 q 327 0 316 13 q 308 23 308 38 q 308 70 325 135 q 346 216 394 314 q 396 319 453 426 z"},"o":{"x_min":0,"x_max":232,"ha":232,"o":"m 160 353 q 200 353 200 304 q 200 239 140 140 q 75 32 14 32 q -15 32 -28 58 q -35 71 -35 90 q -35 152 8 226 q 48 293 103 331 q 134 353 160 353 z m 109 168 q 97 178 97 184 q 97 188 113 205 q 157 254 157 285 q 157 289 154 292 q 150 300 142 300 q 126 300 96 270 q 57 230 37 189 q 13 142 13 110 q 13 102 17 96 q 23 87 33 87 q 57 87 83 122 q 95 137 103 152 q 110 168 109 168 z"},"N":{"x_min":0,"x_max":498,"ha":498,"o":"m 285 110 q 325 231 380 340 q 424 426 497 555 q 551 650 568 668 q 585 687 604 687 q 619 687 619 673 q 619 666 612 654 q 606 643 572 588 q 459 405 407 287 q 360 181 327 79 q 314 42 300 25 q 278 -1 256 -1 q 236 -1 231 27 q 229 39 229 72 q 229 189 251 332 q 272 457 293 532 q 246 480 153 315 q 79 185 42 71 q 27 24 21 13 q 8 -8 -12 -8 q -21 -8 -26 -1 q -31 4 -31 10 q -31 29 0 108 q 42 212 137 373 q 193 469 271 578 q 309 629 327 645 q 343 658 358 658 q 364 658 369 654 q 376 649 376 641 q 376 631 371 619 q 348 559 323 453 q 283 281 283 161 q 283 145 285 110 z"},"+":{"x_min":0,"x_max":342,"ha":342,"o":"m 146 297 q 171 353 191 389 q 210 425 235 425 q 246 425 246 414 q 246 402 224 356 q 214 335 196 296 q 242 295 251 294 q 284 294 294 289 q 303 284 303 271 q 303 246 282 246 q 277 246 265 248 q 255 249 193 249 l 176 250 q 160 211 145 169 q 131 130 122 117 q 112 102 99 102 q 92 102 87 106 q 81 111 81 119 q 81 140 125 249 q 83 247 70 244 q 57 242 49 242 q 37 242 29 252 q 25 258 25 266 q 25 288 51 293 q 64 295 133 297 z"},"G":{"x_min":0,"x_max":399,"ha":399,"o":"m 219 112 q 186 89 166 78 q 120 52 86 52 q 46 52 21 90 q 2 118 2 154 q 2 255 90 389 q 171 512 279 602 q 367 675 430 675 q 461 675 481 648 q 497 627 497 600 q 497 515 414 423 q 350 354 317 354 q 310 354 303 359 q 295 366 295 375 q 295 388 316 405 q 372 450 406 496 q 460 568 460 610 q 460 621 452 628 q 444 634 433 634 q 407 634 364 604 q 273 540 185 425 q 127 350 89 271 q 56 201 56 156 q 56 139 67 123 q 83 102 107 102 q 142 102 192 139 q 256 185 283 212 q 306 236 318 236 q 326 236 332 229 q 338 221 338 209 q 338 195 322 173 q 305 150 269 89 q 228 20 193 -62 q 163 -134 156 -159 q 151 -181 144 -190 q 137 -200 122 -200 q 109 -200 102 -191 q 96 -183 96 -172 q 96 -131 145 -29 q 152 -13 194 65 q 202 81 219 112 z"},"q":{"x_min":0,"x_max":254,"ha":254,"o":"m 77 91 q 31 35 -3 35 q -26 35 -39 56 q -47 70 -47 90 q -47 135 -16 196 q 26 277 87 325 q 123 352 154 352 q 180 352 191 333 q 199 319 199 303 q 199 297 198 287 q 212 282 212 273 q 212 267 203 250 q 170 187 94 17 q 27 -131 -7 -245 q -15 -279 -34 -279 q -44 -279 -50 -269 q -54 -261 -54 -253 q -54 -223 2 -85 q 28 -20 51 30 q 68 69 77 91 z m 103 171 q 101 178 101 182 q 101 193 118 210 q 151 244 151 285 q 151 295 147 300 q 144 305 137 305 q 112 305 59 235 q 33 202 14 156 q 1 124 1 108 q 1 101 5 95 q 11 87 21 87 q 41 87 70 123 q 83 138 92 153 q 103 170 103 171 z"},"d":{"x_min":0,"x_max":261,"ha":261,"o":"m 168 323 q 217 425 261 501 q 303 574 318 593 q 334 614 349 614 q 357 614 363 608 q 369 602 369 594 q 369 583 353 557 q 282 442 223 325 q 154 188 154 119 q 154 91 165 75 q 167 72 183 60 q 186 57 186 50 q 186 40 178 32 q 170 24 161 24 q 150 24 136 38 q 117 57 113 83 q 111 93 109 123 q 58 30 12 30 q -15 30 -31 61 q -42 81 -42 106 q -42 182 14 259 q 69 335 132 335 q 150 335 168 323 z m 152 283 q 139 292 129 292 q 88 292 51 242 q 3 176 3 115 q 3 108 6 102 q 12 89 23 89 q 41 89 65 123 q 98 167 125 227 q 135 247 145 268 q 145 268 149 277 z"},"1":{"x_min":0,"x_max":342,"ha":342,"o":"m 239 428 q 205 402 170 384 q 124 359 109 359 q 94 359 94 384 q 94 393 98 399 q 102 405 116 410 q 160 429 244 481 q 282 505 298 505 q 308 505 316 495 q 322 488 322 480 q 322 468 303 439 q 162 210 107 80 q 94 48 88 41 q 79 27 70 27 q 61 27 52 39 q 47 45 47 52 q 47 79 123 226 q 193 365 239 428 z"},"5":{"x_min":0,"x_max":342,"ha":342,"o":"m 224 445 q 141 374 118 322 q 167 342 201 342 q 240 342 263 318 q 284 296 284 261 q 284 181 207 99 q 131 17 58 17 q 16 17 -7 56 q -22 83 -22 116 q -22 149 -8 171 q 4 189 23 189 q 41 189 41 176 q 41 173 38 165 q 33 150 33 126 q 33 105 43 90 q 56 68 79 68 q 123 68 170 123 q 223 184 223 244 q 223 269 212 281 q 201 293 178 293 q 155 293 123 282 q 116 279 87 264 q 82 261 77 261 q 67 261 58 272 q 48 286 48 296 q 48 317 91 374 q 118 411 157 448 q 146 463 146 471 q 146 482 162 487 q 169 489 217 496 q 271 503 305 503 q 337 503 351 499 q 369 494 369 475 q 369 453 346 453 q 341 453 327 454 q 322 454 315 454 q 292 454 269 452 q 247 450 224 445 z"}}}
